<svg width="36" height="36" viewBox="0 0 36 36" fill="none" xmlns="http://www.w3.org/2000/svg">
<path d="M30 27.4951C30 32.4285 23.1517 33 18 33C17.4808 33 16.9691 32.9925 16.4664 32.9775C15.8687 32.9625 15.3977 32.466 15.4158 31.8705C15.4325 31.2765 15.9487 30.8296 16.5283 30.8251C17.0113 30.8386 17.5019 30.8446 18 30.8446C24.5238 30.8446 27.8325 29.7181 27.8325 27.4951C27.8325 25.2512 24.5238 24.1127 18 24.1127C11.4762 24.1127 8.16755 25.2407 8.16755 27.4651C8.16755 28.1926 8.42717 29.2471 10.6808 30.0061C11.2483 30.1966 11.5517 30.8071 11.36 31.3695C11.1668 31.932 10.554 32.2395 9.98491 32.0445C6.69132 30.9361 6 28.9426 6 27.4651C6 22.631 12.5716 21.9839 17.6825 21.9595L18.5713 21.9598C21.9797 21.9772 30 22.2782 30 27.4951ZM18 3C22.4558 3 26.08 6.60291 26.08 11.0308C26.08 15.4572 22.4558 19.0601 18 19.0601C13.5442 19.0601 9.91849 15.4572 9.91849 11.0308C9.91849 6.60291 13.5442 3 18 3ZM18 5.15545C14.7396 5.15545 12.0875 7.79088 12.0875 11.0308C12.0875 14.2692 14.7396 16.9047 18 16.9047C21.2604 16.9047 23.9125 14.2692 23.9125 11.0308C23.9125 7.79088 21.2604 5.15545 18 5.15545Z" fill="#F9F9F9"/>
</svg>
