<svg width="38" height="37" viewBox="0 0 38 37" fill="none" xmlns="http://www.w3.org/2000/svg">
<path d="M37.0416 33.9569L30.5965 27.8236L30.4455 27.6C30.1646 27.3278 29.7806 27.1745 29.3797 27.1745C28.9788 27.1745 28.5948 27.3278 28.3139 27.6C22.8365 32.4911 14.3965 32.7569 8.59126 28.2213C2.78599 23.6856 1.41688 15.7559 5.39191 9.69106C9.36694 3.62622 17.4526 1.30825 24.2866 4.2744C31.1206 7.24055 34.5821 14.5704 32.3757 21.4029C32.2168 21.8965 32.3466 22.4332 32.7164 22.811C33.0861 23.1887 33.6396 23.3501 34.1682 23.2342C34.6969 23.1184 35.1204 22.743 35.2793 22.2494C37.917 14.1413 33.9333 5.41579 25.9052 1.71743C17.8772 -1.98093 8.21407 0.457754 3.16698 7.45589C-1.88012 14.454 -0.796539 23.9114 5.71675 29.7101C12.23 35.5088 22.2183 35.9085 29.2202 30.6507L34.9268 36.0812C35.5162 36.6396 36.4691 36.6396 37.0584 36.0812C37.6472 35.5149 37.6472 34.6031 37.0584 34.0368L37.0416 33.9569Z" fill="white"/>
</svg>
